<?xml version="1.0" encoding="UTF-8" standalone="no"?>
<svg
   xmlns:dc="http://purl.org/dc/elements/1.1/"
   xmlns:cc="http://creativecommons.org/ns#"
   xmlns:rdf="http://www.w3.org/1999/02/22-rdf-syntax-ns#"
   xmlns:svg="http://www.w3.org/2000/svg"
   xmlns="http://www.w3.org/2000/svg"
   xmlns:sodipodi="http://sodipodi.sourceforge.net/DTD/sodipodi-0.dtd"
   xmlns:inkscape="http://www.inkscape.org/namespaces/inkscape"
   viewBox="0 0 48 48"
   version="1.1"
   id="svg25"
   sodipodi:docname="applauncher.svg"
   inkscape:export-filename="/home/martin/Proyectos/git/mribelotta/launcher/resources/applauncher.png"
   inkscape:export-xdpi="192"
   inkscape:export-ydpi="192"
   inkscape:version="0.92.3 (2405546, 2018-03-11)">
  <metadata
     id="metadata29">
    <rdf:RDF>
      <cc:Work
         rdf:about="">
        <dc:format>image/svg+xml</dc:format>
        <dc:type
           rdf:resource="http://purl.org/dc/dcmitype/StillImage" />
      </cc:Work>
    </rdf:RDF>
  </metadata>
  <sodipodi:namedview
     pagecolor="#ffffff"
     bordercolor="#666666"
     borderopacity="1"
     objecttolerance="10"
     gridtolerance="10"
     guidetolerance="10"
     inkscape:pageopacity="0"
     inkscape:pageshadow="2"
     inkscape:window-width="1298"
     inkscape:window-height="741"
     id="namedview27"
     showgrid="false"
     inkscape:zoom="4.9166667"
     inkscape:cx="16.474576"
     inkscape:cy="24"
     inkscape:window-x="68"
     inkscape:window-y="27"
     inkscape:window-maximized="1"
     inkscape:current-layer="svg25" />
  <defs
     id="defs17">
    <linearGradient
       id="grad0"
       gradientUnits="userSpaceOnUse"
       y1="5.273"
       x2="0"
       y2="8.991">
      <stop
         offset="0"
         stop-color="#ff4c39"
         id="stop2" />
      <stop
         offset="1"
         stop-color="#cf3d2e"
         id="stop4" />
    </linearGradient>
    <linearGradient
       id="grad1"
       x1="26.441"
       y1="44.746"
       x2="25.627"
       y2="-3.458"
       gradientUnits="userSpaceOnUse">
      <stop
         offset="0"
         stop-color="#18191b"
         id="stop7" />
      <stop
         stop-color="#424649"
         offset="1"
         id="stop9" />
    </linearGradient>
    <linearGradient
       id="grad2"
       gradientUnits="userSpaceOnUse"
       y1="35.863"
       x2="23.775"
       y2="11.735"
       x1="24.21">
      <stop
         offset="0"
         stop-color="#dbdada"
         id="stop12" />
      <stop
         offset="1"
         stop-color="#fff"
         id="stop14" />
    </linearGradient>
  </defs>
  <ellipse
     cx="26.644"
     cy="20.949"
     rx="24"
     ry="24"
     fill="url(#grad1)"
     transform="translate(-2.644 3.051)"
     id="ellipse19" />
  <g
     transform="matrix(1.71427 0 0 1.71427-49.21 3.512)"
     enable-background="new"
     id="g23">
    <path
       d="M15.658203 12.679688A3.186828 3.186828 0 0 0 12.470703 15.867188 3.186828 3.186828 0 0 0 15.658203 19.05273 3.186828 3.186828 0 0 0 18.845703 15.867188 3.186828 3.186828 0 0 0 15.658203 12.679688M24.19922 12.679688A3.186828 3.186828 0 0 0 21.01367 15.867188 3.186828 3.186828 0 0 0 24.19922 19.05273 3.186828 3.186828 0 0 0 27.386719 15.867188 3.186828 3.186828 0 0 0 24.19922 12.679688M32.484375 12.679688A3.186828 3.186828 0 0 0 29.29883 15.867188 3.186828 3.186828 0 0 0 32.484375 19.05273 3.186828 3.186828 0 0 0 35.671875 15.867188 3.186828 3.186828 0 0 0 32.484375 12.679688M32.484375 21.2207A3.186828 3.186828 0 0 0 29.29883 24.408203 3.186828 3.186828 0 0 0 32.484375 27.59375 3.186828 3.186828 0 0 0 35.671875 24.408203 3.186828 3.186828 0 0 0 32.484375 21.2207M24.19922 21.347656A3.186828 3.186828 0 0 0 21.01172 24.533203 3.186828 3.186828 0 0 0 24.19922 27.720703 3.186828 3.186828 0 0 0 27.384766 24.533203 3.186828 3.186828 0 0 0 24.19922 21.347656M15.658203 21.476562A3.186828 3.186828 0 0 0 12.470703 24.662109 3.186828 3.186828 0 0 0 15.658203 27.849609 3.186828 3.186828 0 0 0 18.845703 24.662109 3.186828 3.186828 0 0 0 15.658203 21.476562M32.484375 29.638672A3.186828 3.186828 0 0 0 29.29883 32.826172 3.186828 3.186828 0 0 0 32.484375 36.01367 3.186828 3.186828 0 0 0 35.671875 32.826172 3.186828 3.186828 0 0 0 32.484375 29.638672M15.658203 29.888672A3.186828 3.186828 0 0 0 12.470703 33.07617 3.186828 3.186828 0 0 0 15.658203 36.26367 3.186828 3.186828 0 0 0 18.845703 33.07617 3.186828 3.186828 0 0 0 15.658203 29.888672M24.19922 29.888672A3.186828 3.186828 0 0 0 21.01172 33.07617 3.186828 3.186828 0 0 0 24.19922 36.26367 3.186828 3.186828 0 0 0 27.384766 33.07617 3.186828 3.186828 0 0 0 24.19922 29.888672"
       transform="matrix(.58334 0 0 .58334 28.706-2.049)"
       fill="url(#grad2)"
       id="path21" />
  </g>
</svg>
